<svg xmlns="http://www.w3.org/2000/svg" viewBox="0 0 24 24" xml:space="preserve" class="brz-icon-svg" data-type="outline" data-name="multiple-11"><g class="nc-icon-wrapper" fill="none" stroke="currentColor" stroke-linecap="square" stroke-miterlimit="10"><path data-color="color-2" vector-effect="non-scaling-stroke" d="M4 7h0a2 2 0 0 1-2-2h0a2 2 0 0 1 2-2h0a2 2 0 0 1 2 2h0a2 2 0 0 1-2 2zM6 21H3v-4H1v-5a2 2 0 0 1 2-2h1M20 7h0a2 2 0 0 0 2-2h0a2 2 0 0 0-2-2h0a2 2 0 0 0-2 2h0a2 2 0 0 0 2 2zM18 21h3v-4h2v-5a2 2 0 0 0-2-2h-1"/><path vector-effect="non-scaling-stroke" d="M12 7h0a3 3 0 0 1-3-3h0a3 3 0 0 1 3-3h0a3 3 0 0 1 3 3h0a3 3 0 0 1-3 3zM15 23H9v-6H7v-5a2 2 0 0 1 2-2h6a2 2 0 0 1 2 2v6h-2v5z"/></g></svg>